<svg width="35" height="35" viewBox="0 0 35 35" fill="none" xmlns="http://www.w3.org/2000/svg">
<g id="24 / basic / zoom-in">
<path id="icon" fill-rule="evenodd" clip-rule="evenodd" d="M2.91699 14.5833C2.91699 21.0267 8.14034 26.25 14.5837 26.25C17.2797 26.25 19.7622 25.3355 21.7377 23.7998L29.5942 31.6562L31.6566 29.5938L23.8001 21.7374C25.3358 19.7618 26.2503 17.2794 26.2503 14.5833C26.2503 8.14001 21.027 2.91667 14.5837 2.91667C8.14034 2.91667 2.91699 8.14001 2.91699 14.5833ZM14.5837 23.3333C19.4162 23.3333 23.3337 19.4158 23.3337 14.5833C23.3337 9.75084 19.4162 5.83333 14.5837 5.83333C9.75117 5.83333 5.83366 9.75084 5.83366 14.5833C5.83366 19.4158 9.75117 23.3333 14.5837 23.3333ZM13.1253 8.75V13.125H8.75033V16.0417H13.1253V20.4167H16.042V16.0417H20.417V13.125H16.042V8.75H13.1253Z" fill="white"/>
</g>
</svg>
