<svg id="Capa_1" enable-background="new 0 0 512 512" height="512" viewBox="0 0 512 512" width="512" xmlns="http://www.w3.org/2000/svg"><g><g><path d="m66.688 424c44.676 47.401 108.034 77 178.312 77s133.635-29.599 178.312-77z" fill="#fac600"/></g><g><path d="m245 11c-135.31 0-245 109.69-245 245 0 34.538 7.149 67.404 20.047 97.203l46.641 70.797h356.623c41.342-43.863 66.689-102.968 66.689-168 0-135.31-109.69-245-245-245z" fill="#8bc727"/><path d="m471.953 384.3v-220.706c-8.158-20.017-18.885-38.71-31.774-55.674h-402.104c-9.957 0-18.028 8.071-18.028 18.028v227.231c4.673 10.802 10.115 21.191 16.231 31.121z" fill="#2882b2"/><path d="m50.094 359.263c-3.319 0-6.009-2.691-6.009-6.009v-215.287c0-3.319 2.69-6.009 6.009-6.009h20.906v-6.009c0-9.957 8.071-18.028 18.028-18.028h-50.953c-9.957 0-18.028 8.071-18.028 18.028v227.231c4.517 10.441 9.754 20.494 15.621 30.121h35.332v-24.037h-20.906z" fill="#116d9a"/><path d="m441.906 131.958h-391.812c-3.319 0-6.009 2.691-6.009 6.009v215.286c0 3.319 2.69 6.009 6.009 6.009h10.906l1-1v-68.417c0-17.614 14.33-31.943 31.943-31.943h173.939c17.613 0 31.942 14.33 31.942 31.943v68.417l1 1h141.082c3.319 0 6.009-2.691 6.009-6.009v-215.286c.001-3.319-2.69-6.009-6.009-6.009z" fill="#fff"/><path d="m502 44.333h-171c-5.523 0-10 4.477-10 10v66.737c0 1.227-.747 2.33-1.885 2.785l-31.513 12.61c-4.19 1.677-4.19 7.608 0 9.284l31.513 12.61c1.139.456 1.885 1.559 1.885 2.785v66.737c0 5.523 4.477 10 10 10h171c5.523 0 10-4.477 10-10v-173.548c0-5.523-4.477-10-10-10z" fill="#26a6fe"/><path d="m347.459 227.882v-173.549c0-5.523 4.477-10 10-10h-26.459c-5.523 0-10 4.477-10 10v66.737c0 1.227-.747 2.33-1.885 2.785l-31.513 12.61c-4.19 1.677-4.19 7.608 0 9.284l31.513 12.61c1.139.456 1.885 1.559 1.885 2.785v66.737c0 5.523 4.477 10 10 10h26.459c-5.523.001-10-4.477-10-9.999z" fill="#0593fc"/><path d="m75.169 262.781v-124.814c0-3.319 2.69-6.009 6.009-6.009h-31.084c-3.319 0-6.009 2.691-6.009 6.009v215.286c0 3.319 2.69 6.009 6.009 6.009h10.906v-69.417c0-11.214 5.609-21.114 14.169-27.064z" fill="#eaf6ff"/><g><path d="m492 383.3h-456.369c9.254 15.187 20.114 29.287 32.344 42.066h424.025c5.523 0 10-4.477 10-10v-22.066c0-5.522-4.477-10-10-10z" fill="#116d9a"/></g><path d="m88 415.366v-22.066c0-5.523 4.477-10 10-10h-62.369c9.254 15.187 20.114 29.287 32.344 42.066h30.025c-5.523 0-10-4.477-10-10z" fill="#005e89"/><g><g><path d="m300.824 359.263h-239.824v-69.417c0-18.194 14.749-32.943 32.943-32.943h173.939c18.194 0 32.943 14.749 32.943 32.943v69.417z" fill="#26a6fe"/></g><path d="m135.943 256.903h-42c-18.194 0-32.943 14.749-32.943 32.942v69.417h42v-69.417c0-18.193 14.749-32.942 32.943-32.942z" fill="#0593fc"/><path d="m204.245 246.679h-46.665c-5.23 0-10.243-.945-14.881-2.667v44.942c0 3.563 3.62 5.982 6.912 4.62l29.389-12.161c1.224-.507 2.599-.507 3.823 0l29.39 12.161c3.292 1.362 6.912-1.057 6.912-4.62v-44.942c-4.637 1.722-9.65 2.667-14.88 2.667z" fill="#60b7ff"/><g><g><path d="m104.485 151.167h10.224v-10.224c0-12.982 9.81-23.711 22.406-25.177l-12.357-4.556c-7.866-2.9-14.381-8.246-18.817-14.976-4.647 6.587-7.385 14.616-7.385 23.29v32.619c1.865-.624 3.855-.976 5.929-.976z" fill="#ca6e59"/><path d="m124.411 112.149 10.671 3.934c1.611-.322 3.276-.494 4.98-.494h81.698c13.98 0 25.354 11.374 25.354 25.354v10.224h10.224c2.074 0 4.063.352 5.93.975v-49.993c.002-26.592-21.556-48.149-48.148-48.149h-104.706c-6.55 0-11.859 5.31-11.859 11.859v9.198c0 16.56 10.32 31.364 25.856 37.092z" fill="#bb5d4c"/><g><path d="m133.366 115.45c2.139-.56 4.383-.861 6.697-.861h22.412l-6.619-2.44c-15.536-5.728-25.856-20.532-25.856-37.091v-9.198c0-6.55 5.31-11.86 11.859-11.86h-31.445c-6.55 0-11.859 5.31-11.859 11.859v9.198c0 16.559 10.32 31.363 25.856 37.091z" fill="#a44f3e"/></g></g><path d="m158.511 246.679v8.825c0 .915.251 1.813.726 2.595l17.401 28.661c1.947 3.207 6.601 3.207 8.548 0l17.401-28.661c.475-.782.726-1.68.726-2.595v-8.825z" fill="#ffb09e"/><path d="m179.198 255.504v-7.825h-20.687v7.825c0 .915.251 1.813.726 2.595l17.401 28.661c1.947 3.207 6.601 3.207 8.548 0l6.069-9.997-11.332-18.664c-.474-.783-.725-1.68-.725-2.595z" fill="#ffa78f"/><g><path d="m257.34 150.167h-10.224v51.391h10.224c10.916 0 19.766-8.849 19.766-19.766v-11.859c0-10.916-8.85-19.766-19.766-19.766z" fill="#ffb09e"/></g><g><path d="m204.245 247.679h-46.666c-24.229 0-43.871-19.642-43.871-43.871v-62.864c0-14.555 11.799-26.354 26.354-26.354h81.698c14.555 0 26.354 11.799 26.354 26.354v62.864c.002 24.229-19.64 43.871-43.869 43.871z" fill="#ffcebf"/></g><path d="m114.708 150.167h-10.224c-10.916 0-19.766 8.849-19.766 19.766v11.859c0 10.916 8.849 19.766 19.766 19.766h10.224z" fill="#ffa78f"/><path d="m134.593 203.808v-62.864c0-14.555 11.799-26.354 26.354-26.354h-20.884c-14.555 0-26.354 11.799-26.354 26.354v62.864c0 24.229 19.642 43.871 43.871 43.871h20.884c-24.23-.001-43.871-19.642-43.871-43.871z" fill="#ffb09e"/><g><g><g><circle cx="146.564" cy="164.004" fill="#ca6e59" r="11.201"/></g><g><circle cx="215.261" cy="164.004" fill="#ca6e59" r="11.201"/></g></g><g><path d="m180.915 201.152c-2.088 0-4.165-.867-5.647-2.561l-9.224-10.542c-2.06-2.354-2.442-5.74-.959-8.495l9.224-17.13c1.964-3.647 6.512-5.013 10.159-3.048 3.647 1.964 5.012 6.512 3.048 10.159l-6.758 12.551 5.799 6.627c2.728 3.118 2.412 7.856-.706 10.583-1.423 1.246-3.183 1.856-4.936 1.856z" fill="#ca6e59"/></g></g></g></g><g><path d="m180.912 231.892c-8.834 0-17.669-3.363-24.395-10.089-2.929-2.929-2.929-7.678 0-10.606 2.929-2.929 7.678-2.929 10.606 0 7.604 7.603 19.974 7.603 27.577 0 2.929-2.929 7.678-2.929 10.606 0 2.929 2.929 2.929 7.678 0 10.606-6.724 6.726-15.559 10.089-24.394 10.089z" fill="#ca6e59"/></g><g><g><path d="m416 94.383h-49c-4.143 0-7.5-3.358-7.5-7.5s3.357-7.5 7.5-7.5h49c4.143 0 7.5 3.358 7.5 7.5s-3.357 7.5-7.5 7.5z" fill="#fff"/></g><g><path d="m466 138.824h-99c-4.143 0-7.5-3.358-7.5-7.5s3.357-7.5 7.5-7.5h99c4.143 0 7.5 3.358 7.5 7.5s-3.357 7.5-7.5 7.5z" fill="#fff"/></g><g><path d="m466 170.828h-99c-4.143 0-7.5-3.358-7.5-7.5s3.357-7.5 7.5-7.5h99c4.143 0 7.5 3.358 7.5 7.5s-3.357 7.5-7.5 7.5z" fill="#fff"/></g><g><path d="m466 202.832h-99c-4.143 0-7.5-3.358-7.5-7.5s3.357-7.5 7.5-7.5h99c4.143 0 7.5 3.358 7.5 7.5s-3.357 7.5-7.5 7.5z" fill="#fff"/></g></g><path d="m502 250.778h-171c-5.523 0-10 4.477-10 10v16.404c0 1.227-.747 2.33-1.885 2.785l-31.513 12.61c-4.19 1.677-4.19 7.608 0 9.284l31.513 12.61c1.139.456 1.885 1.559 1.885 2.785v16.405c0 5.523 4.477 10 10 10h171c5.523 0 10-4.477 10-10v-72.884c0-5.522-4.477-9.999-10-9.999z" fill="#fed402"/><path d="m347.459 333.662v-72.884c0-5.523 4.477-10 10-10h-26.459c-5.523 0-10 4.477-10 10v16.404c0 1.227-.747 2.33-1.885 2.785l-31.513 12.61c-4.19 1.677-4.19 7.608 0 9.284l31.513 12.61c1.139.456 1.885 1.559 1.885 2.785v16.405c0 5.523 4.477 10 10 10h26.459c-5.523.001-10-4.476-10-9.999z" fill="#fac600"/><g><g><path d="m466 288.718h-99c-4.143 0-7.5-3.358-7.5-7.5s3.357-7.5 7.5-7.5h99c4.143 0 7.5 3.358 7.5 7.5s-3.357 7.5-7.5 7.5z" fill="#fff"/></g><g><path d="m466 320.722h-99c-4.143 0-7.5-3.358-7.5-7.5s3.357-7.5 7.5-7.5h99c4.143 0 7.5 3.358 7.5 7.5s-3.357 7.5-7.5 7.5z" fill="#fff"/></g></g><g><g><circle cx="464.453" cy="403.5" fill="#fed402" r="7.5"/></g><g><circle cx="438.453" cy="403.5" fill="#fff" r="7.5"/></g></g></g></g></svg>